<svg width="293" height="295" viewBox="0 0 293 295" fill="none" xmlns="http://www.w3.org/2000/svg">
<g id="Frame 178">
<ellipse id="Ellipse 127" cx="184.177" cy="155.243" rx="27.7631" ry="58.0164" transform="rotate(12.0069 184.177 155.243)" fill="#9EE7FA"/>
<ellipse id="Ellipse 128" cx="95.5739" cy="136.4" rx="27.7631" ry="58.0164" transform="rotate(12.0069 95.5739 136.4)" fill="#9EE7FA"/>
<rect id="Rectangle 27" x="107.643" y="79.6523" width="90.585" height="116.033" transform="rotate(12.0069 107.643 79.6523)" fill="#9EE7FA"/>
<rect id="Rectangle 28" x="84.4414" y="105.223" width="78.5171" height="20.8853" transform="rotate(12.0069 84.4414 105.223)" fill="#0F172B"/>
<ellipse id="Ellipse 129" cx="104.073" cy="120.074" rx="5.82214" ry="6.31123" transform="rotate(12.0069 104.073 120.074)" fill="#FDD301"/>
<ellipse id="Ellipse 130" cx="132.429" cy="126.105" rx="5.82214" ry="6.31123" transform="rotate(12.0069 132.429 126.105)" fill="#FDD301"/>
<g id="Group 34">
<rect id="Rectangle 29" x="102.122" y="166.969" width="18.2396" height="8.19125" transform="rotate(12.0069 102.122 166.969)" fill="#1682E1"/>
<rect id="Rectangle 30" x="121.667" y="162.75" width="12.492" height="8.19125" transform="rotate(12.0069 121.667 162.75)" fill="#1682E1"/>
<rect id="Rectangle 33" x="135.589" y="157.338" width="12.492" height="8.19125" transform="rotate(12.0069 135.589 157.338)" fill="#1682E1"/>
<rect id="Rectangle 31" x="91.6069" y="156.357" width="12.492" height="8.19125" transform="rotate(12.0069 91.6069 156.357)" fill="#1682E1"/>
<rect id="Rectangle 32" x="81.0923" y="145.746" width="12.492" height="8.19125" transform="rotate(12.0069 81.0923 145.746)" fill="#1682E1"/>
</g>
<ellipse id="Ellipse 126" cx="184.177" cy="155.245" rx="21.1515" ry="45.2925" transform="rotate(12.0069 184.177 155.245)" fill="#0F172B"/>
</g>
</svg>
