<svg width="1234" height="342" viewBox="0 0 1234 342" fill="none" xmlns="http://www.w3.org/2000/svg">
<g id="Group 68">
<path id="Not sure what you need?" d="M49.3998 82.54H48.8298L50.3498 146H13.6798V11.48H57.5698L78.6598 77.03H79.4198L78.2798 11.48H113.62V146H70.8698L49.3998 82.54ZM124.238 78.36C124.238 67.5933 125.504 57.84 128.038 49.1C130.698 40.36 134.434 32.95 139.248 26.87C144.188 20.6633 150.141 15.9133 157.108 12.62C164.074 9.32666 171.864 7.67999 180.478 7.67999C189.091 7.67999 196.881 9.32666 203.848 12.62C210.814 15.9133 216.704 20.6633 221.517 26.87C226.458 32.95 230.194 40.36 232.728 49.1C235.388 57.84 236.718 67.5933 236.718 78.36C236.718 89.1266 235.388 98.9433 232.728 107.81C230.194 116.55 226.458 124.023 221.517 130.23C216.704 136.437 210.814 141.25 203.848 144.67C196.881 148.09 189.091 149.8 180.478 149.8C171.864 149.8 164.074 148.09 157.108 144.67C150.141 141.25 144.188 136.437 139.248 130.23C134.434 124.023 130.698 116.55 128.038 107.81C125.504 98.9433 124.238 89.1266 124.238 78.36ZM166.038 78.36C166.038 87.1 167.178 94.3833 169.458 100.21C171.864 105.91 175.538 108.76 180.478 108.76C185.418 108.76 189.028 105.91 191.308 100.21C193.714 94.3833 194.918 87.1 194.918 78.36C194.918 69.62 193.714 62.4633 191.308 56.89C189.028 51.19 185.418 48.34 180.478 48.34C175.538 48.34 171.864 51.19 169.458 56.89C167.178 62.4633 166.038 69.62 166.038 78.36ZM296.069 146H255.409V46.44H231.659V11.48L319.819 11.48V46.44H296.069V146ZM386.442 149.42C381.882 149.42 377.512 148.977 373.332 148.09C369.279 147.33 365.479 146.253 361.932 144.86C358.512 143.467 355.345 141.883 352.432 140.11C349.519 138.337 347.049 136.563 345.022 134.79L364.782 103.44C367.695 105.847 370.862 107.81 374.282 109.33C377.829 110.85 381.312 111.61 384.732 111.61C386.885 111.61 388.659 111.103 390.052 110.09C391.572 108.95 392.332 107.367 392.332 105.34C392.332 102.933 391.255 100.907 389.102 99.26C387.075 97.6133 383.845 95.7133 379.412 93.56C375.612 91.7866 372.002 89.8233 368.582 87.67C365.162 85.39 362.122 82.6666 359.462 79.5C356.802 76.3333 354.649 72.66 353.002 68.48C351.482 64.1733 350.722 59.17 350.722 53.47C350.722 45.2367 352.179 38.27 355.092 32.57C358.005 26.7433 361.679 22.0567 366.112 18.51C370.672 14.8367 375.675 12.1767 381.122 10.53C386.695 8.88333 392.142 8.06 397.462 8.06C405.569 8.06 412.789 9.32666 419.122 11.86C425.582 14.3933 430.965 17.6867 435.272 21.74L414.942 52.71C412.789 50.5567 410.255 48.7833 407.342 47.39C404.429 45.87 401.642 45.11 398.982 45.11C396.955 45.11 395.119 45.6167 393.472 46.63C391.825 47.6433 391.002 49.4166 391.002 51.95C391.002 53.9767 391.825 55.6233 393.472 56.89C395.245 58.1567 398.602 59.9933 403.542 62.4C406.329 63.7933 409.432 65.5667 412.852 67.72C416.272 69.7466 419.502 72.4066 422.542 75.7C425.582 78.8666 428.115 82.73 430.142 87.29C432.295 91.85 433.372 97.2333 433.372 103.44C433.372 111.547 432.042 118.513 429.382 124.34C426.722 130.167 423.175 134.917 418.742 138.59C414.309 142.263 409.242 144.987 403.542 146.76C397.969 148.533 392.269 149.42 386.442 149.42ZM488.954 149.8C480.088 149.8 472.551 148.407 466.344 145.62C460.138 142.707 455.008 138.717 450.954 133.65C447.028 128.583 444.114 122.63 442.214 115.79C440.441 108.95 439.554 101.54 439.554 93.56V11.48H481.164V89.95C481.164 96.41 481.671 101.35 482.684 104.77C483.824 108.063 486.168 109.71 489.714 109.71C493.261 109.71 495.604 108.063 496.744 104.77C497.884 101.35 498.454 96.41 498.454 89.95V11.48H539.494V93.56C539.494 101.54 538.481 108.95 536.454 115.79C534.554 122.63 531.514 128.583 527.334 133.65C523.281 138.717 518.088 142.707 511.754 145.62C505.421 148.407 497.821 149.8 488.954 149.8ZM595.47 97.74H592.05V146H552.53V11.48H602.5C610.227 11.48 616.94 12.4933 622.64 14.52C628.467 16.5467 633.217 19.46 636.89 23.26C640.563 27.06 643.287 31.6833 645.06 37.13C646.96 42.45 647.91 48.4667 647.91 55.18C647.91 59.74 647.403 63.8567 646.39 67.53C645.377 71.2033 644.11 74.4967 642.59 77.41C641.07 80.1966 639.36 82.54 637.46 84.44C635.56 86.34 633.66 87.7333 631.76 88.62L653.23 146H609.72L595.47 97.74ZM592.05 45.87V69.43H595.47C596.61 69.43 597.877 69.3033 599.27 69.05C600.663 68.67 601.93 68.0367 603.07 67.15C604.21 66.2633 605.16 65.06 605.92 63.54C606.68 62.02 607.06 60.0567 607.06 57.65C607.06 55.1167 606.68 53.09 605.92 51.57C605.287 50.05 604.4 48.8467 603.26 47.96C602.247 47.0733 601.107 46.5033 599.84 46.25C598.7 45.9967 597.623 45.87 596.61 45.87H592.05ZM659.316 11.48H731.136V47.77H698.646V61.26H728.096V94.89H698.646V109.14H733.606V146H659.316V11.48ZM832.648 146H791.988L767.098 11.48L809.088 11.48L818.208 90.14H819.158L828.848 11.48H865.898L876.348 90.14H876.918L885.848 11.48H925.938L900.668 146H860.008L846.518 71.14H845.948L832.648 146ZM992.01 94.51H973.77V146H932.73V11.48H973.77V57.46H992.01V11.48H1033.05V146H992.01V94.51ZM1106.36 127.38H1083.18L1079.57 146H1038.34L1070.07 11.48H1121.18L1153.1 146H1109.97L1106.36 127.38ZM1087.74 95.46H1101.42L1095.15 51.76H1094.39L1087.74 95.46ZM1209.55 146H1168.89V46.44H1145.14V11.48H1233.3V46.44H1209.55V146ZM75.0498 317H34.3898V272.73L-0.000194902 182.48H44.6498L54.7198 232.07H55.2898L65.9298 182.48H109.82L75.0498 272.73V317ZM104.57 249.36C104.57 238.593 105.836 228.84 108.37 220.1C111.03 211.36 114.766 203.95 119.58 197.87C124.52 191.663 130.473 186.913 137.44 183.62C144.406 180.327 152.196 178.68 160.81 178.68C169.423 178.68 177.213 180.327 184.18 183.62C191.146 186.913 197.036 191.663 201.85 197.87C206.79 203.95 210.526 211.36 213.06 220.1C215.72 228.84 217.05 238.593 217.05 249.36C217.05 260.127 215.72 269.943 213.06 278.81C210.526 287.55 206.79 295.023 201.85 301.23C197.036 307.437 191.146 312.25 184.18 315.67C177.213 319.09 169.423 320.8 160.81 320.8C152.196 320.8 144.406 319.09 137.44 315.67C130.473 312.25 124.52 307.437 119.58 301.23C114.766 295.023 111.03 287.55 108.37 278.81C105.836 269.943 104.57 260.127 104.57 249.36ZM146.37 249.36C146.37 258.1 147.51 265.383 149.79 271.21C152.196 276.91 155.87 279.76 160.81 279.76C165.75 279.76 169.36 276.91 171.64 271.21C174.046 265.383 175.25 258.1 175.25 249.36C175.25 240.62 174.046 233.463 171.64 227.89C169.36 222.19 165.75 219.34 160.81 219.34C155.87 219.34 152.196 222.19 149.79 227.89C147.51 233.463 146.37 240.62 146.37 249.36ZM274.173 320.8C265.306 320.8 257.769 319.407 251.563 316.62C245.356 313.707 240.226 309.717 236.173 304.65C232.246 299.583 229.333 293.63 227.433 286.79C225.659 279.95 224.773 272.54 224.773 264.56V182.48H266.383V260.95C266.383 267.41 266.889 272.35 267.903 275.77C269.043 279.063 271.386 280.71 274.933 280.71C278.479 280.71 280.823 279.063 281.963 275.77C283.103 272.35 283.673 267.41 283.673 260.95V182.48H324.713V264.56C324.713 272.54 323.699 279.95 321.673 286.79C319.773 293.63 316.733 299.583 312.553 304.65C308.499 309.717 303.306 313.707 296.973 316.62C290.639 319.407 283.039 320.8 274.173 320.8ZM407.706 253.54H407.136L408.656 317H371.986V182.48H415.876L436.966 248.03H437.726L436.586 182.48H471.926V317H429.176L407.706 253.54ZM487.863 182.48H559.683V218.77H527.193V232.26H556.643V265.89H527.193V280.14H562.153V317H487.863V182.48ZM572.755 182.48H644.575V218.77H612.085V232.26H641.535V265.89H612.085V280.14H647.045V317H572.755V182.48ZM657.646 317V182.48H700.966C711.986 182.48 721.296 184.19 728.896 187.61C736.623 190.903 742.829 195.527 747.516 201.48C752.329 207.433 755.813 214.59 757.966 222.95C760.119 231.183 761.196 240.24 761.196 250.12C761.196 259.873 760.119 268.867 757.966 277.1C755.813 285.207 752.329 292.237 747.516 298.19C742.829 304.017 736.623 308.64 728.896 312.06C721.296 315.353 711.986 317 700.966 317H657.646ZM719.586 250.12C719.586 240.113 718.003 232.387 714.836 226.94C711.669 221.367 707.299 218.58 701.726 218.58H699.256V280.9H701.726C707.299 280.9 711.669 278.177 714.836 272.73C718.003 267.157 719.586 259.62 719.586 250.12ZM829.614 253.16C827.334 255.06 825.687 257.023 824.674 259.05C823.787 261.077 823.344 263.04 823.344 264.94V269.12H790.284V262.09C790.284 258.29 790.601 254.997 791.234 252.21C791.994 249.297 793.007 246.7 794.274 244.42C795.541 242.14 796.997 240.05 798.644 238.15C800.417 236.123 802.317 234.16 804.344 232.26L807.004 229.79C808.524 228.397 809.791 226.94 810.804 225.42C811.817 223.9 812.324 222.38 812.324 220.86C812.324 218.327 811.817 216.363 810.804 214.97C809.791 213.45 808.017 212.69 805.484 212.69C803.711 212.69 802.254 213.133 801.114 214.02C799.974 214.907 799.024 215.983 798.264 217.25C797.631 218.517 797.187 219.847 796.934 221.24C796.681 222.633 796.491 223.773 796.364 224.66L765.394 219.34C765.901 214.4 767.104 209.523 769.004 204.71C770.904 199.77 773.564 195.4 776.984 191.6C780.531 187.673 784.837 184.57 789.904 182.29C795.097 179.883 801.241 178.68 808.334 178.68C820.874 178.68 830.691 182.163 837.784 189.13C844.877 195.97 848.424 205.597 848.424 218.01C848.424 226.243 846.714 232.957 843.294 238.15C840.001 243.343 835.441 248.347 829.614 253.16ZM808.144 318.9C802.064 318.9 797.124 316.81 793.324 312.63C789.524 308.45 787.624 303.32 787.624 297.24C787.624 294.327 788.131 291.54 789.144 288.88C790.157 286.22 791.551 283.94 793.324 282.04C795.097 280.013 797.251 278.43 799.784 277.29C802.317 276.023 805.104 275.39 808.144 275.39C811.184 275.39 813.971 276.023 816.504 277.29C819.037 278.43 821.191 280.013 822.964 282.04C824.737 283.94 826.131 286.22 827.144 288.88C828.157 291.54 828.664 294.327 828.664 297.24C828.664 303.32 826.764 308.45 822.964 312.63C819.164 316.81 814.224 318.9 808.144 318.9Z" fill="white"/>
<path id="Let&#226;&#128;&#153;s collaborate for free consultation" d="M885.704 240C885.522 240 885.368 239.936 885.24 239.808C885.112 239.68 885.048 239.525 885.048 239.344V229.08C885.048 228.915 885.106 228.773 885.224 228.656C885.341 228.539 885.482 228.48 885.648 228.48H887.168C887.328 228.48 887.466 228.539 887.584 228.656C887.701 228.773 887.76 228.915 887.76 229.08V237.488H892.128C892.277 237.488 892.405 237.544 892.512 237.656C892.624 237.763 892.68 237.891 892.68 238.04V239.448C892.68 239.597 892.624 239.728 892.512 239.84C892.405 239.947 892.277 240 892.128 240H885.704ZM897.628 240.288C896.252 240.288 895.153 239.875 894.332 239.048C893.516 238.216 893.108 237.152 893.108 235.856C893.108 234.587 893.516 233.528 894.332 232.68C895.153 231.832 896.233 231.408 897.572 231.408C898.788 231.408 899.796 231.789 900.596 232.552C901.396 233.309 901.796 234.251 901.796 235.376V235.928C901.796 236.067 901.751 236.181 901.66 236.272C901.575 236.357 901.441 236.4 901.26 236.4H894.396V235.096H899.356C899.319 234.611 899.143 234.216 898.828 233.912C898.513 233.603 898.092 233.448 897.564 233.448C896.993 233.448 896.532 233.651 896.18 234.056C895.833 234.461 895.66 235.032 895.66 235.768C895.66 236.563 895.863 237.184 896.268 237.632C896.673 238.08 897.223 238.304 897.916 238.304C898.204 238.304 898.455 238.269 898.668 238.2C898.887 238.131 899.084 238.04 899.26 237.928C899.436 237.816 899.631 237.648 899.844 237.424C899.935 237.349 900.036 237.309 900.148 237.304C900.26 237.299 900.361 237.333 900.452 237.408L901.3 238.112C901.391 238.187 901.439 238.283 901.444 238.4C901.455 238.517 901.42 238.624 901.34 238.72C901.025 239.093 900.695 239.389 900.348 239.608C900.007 239.827 899.625 239.995 899.204 240.112C898.783 240.229 898.257 240.288 897.628 240.288ZM906.469 240.288C905.535 240.288 904.81 240.051 904.293 239.576C903.781 239.096 903.525 238.363 903.525 237.376V230.008C903.525 229.848 903.583 229.709 903.701 229.592C903.818 229.475 903.957 229.416 904.117 229.416H905.613C905.773 229.416 905.911 229.475 906.029 229.592C906.146 229.709 906.205 229.848 906.205 230.008V237.064C906.205 237.448 906.285 237.733 906.445 237.92C906.61 238.101 906.855 238.192 907.181 238.192C907.298 238.192 907.413 238.187 907.525 238.176C907.642 238.165 907.773 238.155 907.917 238.144C908.066 238.128 908.165 238.149 908.213 238.208C908.261 238.267 908.287 238.347 908.293 238.448L908.357 239.56C908.362 239.656 908.343 239.741 908.301 239.816C908.263 239.885 908.143 239.957 907.941 240.032C907.738 240.112 907.519 240.173 907.285 240.216C907.055 240.264 906.783 240.288 906.469 240.288ZM902.669 233.696C902.546 233.696 902.442 233.653 902.357 233.568C902.271 233.477 902.229 233.371 902.229 233.248V232.128C902.229 232.011 902.271 231.909 902.357 231.824C902.442 231.733 902.546 231.688 902.669 231.688H907.813C907.935 231.688 908.039 231.733 908.125 231.824C908.215 231.909 908.261 232.011 908.261 232.128V233.248C908.261 233.371 908.215 233.477 908.125 233.568C908.039 233.653 907.935 233.696 907.813 233.696H902.669ZM908.982 232.608L910.134 231.016C909.916 230.92 909.729 230.76 909.574 230.536C909.42 230.312 909.342 230.045 909.342 229.736C909.342 229.304 909.497 228.939 909.806 228.64C910.116 228.336 910.502 228.184 910.966 228.184C911.43 228.184 911.814 228.336 912.118 228.64C912.428 228.944 912.582 229.325 912.582 229.784C912.582 230.029 912.54 230.269 912.454 230.504C912.369 230.733 912.212 231.008 911.982 231.328L910.806 233C910.689 233.16 910.524 233.256 910.31 233.288C910.102 233.32 909.66 233.093 908.982 232.608ZM916.299 240.288C915.691 240.288 915.163 240.227 914.715 240.104C914.267 239.981 913.869 239.808 913.523 239.584C913.176 239.355 912.907 239.123 912.715 238.888C912.528 238.648 912.443 238.475 912.459 238.368C912.475 238.256 912.52 238.165 912.595 238.096L913.459 237.352C913.533 237.288 913.619 237.251 913.715 237.24C913.811 237.224 913.944 237.293 914.115 237.448C914.285 237.603 914.483 237.752 914.707 237.896C914.931 238.04 915.179 238.149 915.451 238.224C915.723 238.299 916.035 238.336 916.387 238.336C916.776 238.336 917.077 238.275 917.291 238.152C917.504 238.029 917.611 237.851 917.611 237.616C917.611 237.408 917.509 237.245 917.307 237.128C917.104 237.011 916.595 236.853 915.779 236.656C914.755 236.411 914.005 236.075 913.531 235.648C913.061 235.216 912.827 234.672 912.827 234.016C912.827 233.216 913.157 232.581 913.819 232.112C914.48 231.637 915.328 231.4 916.363 231.4C916.859 231.4 917.309 231.448 917.715 231.544C918.125 231.64 918.485 231.776 918.795 231.952C919.109 232.123 919.357 232.307 919.539 232.504C919.725 232.696 919.813 232.845 919.803 232.952C919.797 233.053 919.763 233.139 919.699 233.208L918.859 233.96C918.795 234.024 918.717 234.067 918.627 234.088C918.541 234.104 918.421 234.059 918.267 233.952C918.112 233.845 917.931 233.739 917.723 233.632C917.52 233.525 917.301 233.448 917.067 233.4C916.832 233.352 916.595 233.328 916.355 233.328C916.029 233.328 915.765 233.387 915.563 233.504C915.365 233.621 915.267 233.768 915.267 233.944C915.267 234.131 915.365 234.283 915.563 234.4C915.76 234.517 916.267 234.677 917.083 234.88C918.112 235.136 918.867 235.472 919.347 235.888C919.832 236.299 920.075 236.837 920.075 237.504C920.075 238.331 919.731 239.003 919.043 239.52C918.36 240.032 917.445 240.288 916.299 240.288ZM928.536 240.288C927.192 240.288 926.099 239.872 925.256 239.04C924.414 238.203 923.992 237.141 923.992 235.856C923.992 234.555 924.411 233.488 925.248 232.656C926.086 231.819 927.192 231.4 928.568 231.4C929.171 231.4 929.696 231.477 930.144 231.632C930.598 231.781 931.003 232.003 931.36 232.296C931.718 232.589 932.016 232.965 932.256 233.424C932.326 233.563 932.342 233.699 932.304 233.832C932.267 233.96 932.19 234.053 932.072 234.112L930.896 234.672C930.784 234.736 930.667 234.755 930.544 234.728C930.427 234.701 930.328 234.648 930.248 234.568C930.099 234.339 929.952 234.16 929.808 234.032C929.67 233.904 929.502 233.808 929.304 233.744C929.107 233.675 928.878 233.64 928.616 233.64C928.051 233.64 927.576 233.845 927.192 234.256C926.808 234.661 926.616 235.189 926.616 235.84C926.616 236.496 926.811 237.027 927.2 237.432C927.59 237.837 928.056 238.04 928.6 238.04C928.867 238.04 929.104 238.003 929.312 237.928C929.52 237.853 929.691 237.757 929.824 237.64C929.958 237.523 930.102 237.347 930.256 237.112C930.331 237.032 930.422 236.973 930.528 236.936C930.64 236.899 930.752 236.904 930.864 236.952L932.08 237.4C932.224 237.453 932.326 237.547 932.384 237.68C932.443 237.813 932.44 237.957 932.376 238.112C932.158 238.597 931.878 238.989 931.536 239.288C931.2 239.581 930.779 239.821 930.272 240.008C929.771 240.195 929.192 240.288 928.536 240.288ZM937.657 240.288C936.286 240.288 935.166 239.869 934.297 239.032C933.433 238.195 933.001 237.133 933.001 235.848C933.001 234.547 933.435 233.483 934.305 232.656C935.174 231.824 936.291 231.408 937.657 231.408C939.027 231.408 940.147 231.827 941.017 232.664C941.886 233.496 942.321 234.557 942.321 235.848C942.321 237.133 941.886 238.195 941.017 239.032C940.153 239.869 939.033 240.288 937.657 240.288ZM937.657 238.048C938.243 238.048 938.726 237.843 939.105 237.432C939.489 237.016 939.681 236.488 939.681 235.848C939.681 235.203 939.491 234.675 939.113 234.264C938.734 233.848 938.249 233.64 937.657 233.64C937.065 233.64 936.579 233.848 936.201 234.264C935.822 234.675 935.633 235.203 935.633 235.848C935.633 236.493 935.822 237.021 936.201 237.432C936.579 237.843 937.065 238.048 937.657 238.048ZM944.075 240.064C943.915 240.064 943.776 240.005 943.659 239.888C943.541 239.771 943.483 239.632 943.483 239.472V228.984C943.483 228.824 943.541 228.685 943.659 228.568C943.776 228.451 943.915 228.392 944.075 228.392H945.579C945.739 228.392 945.877 228.451 945.995 228.568C946.112 228.685 946.171 228.824 946.171 228.984V239.472C946.171 239.632 946.112 239.771 945.995 239.888C945.877 240.005 945.739 240.064 945.579 240.064H944.075ZM948.489 240.064C948.329 240.064 948.19 240.005 948.073 239.888C947.956 239.771 947.897 239.632 947.897 239.472V228.984C947.897 228.824 947.956 228.685 948.073 228.568C948.19 228.451 948.329 228.392 948.489 228.392H949.993C950.153 228.392 950.292 228.451 950.409 228.568C950.526 228.685 950.585 228.824 950.585 228.984V239.472C950.585 239.632 950.526 239.771 950.409 239.888C950.292 240.005 950.153 240.064 949.993 240.064H948.489ZM954.727 240.288C953.826 240.288 953.101 240.045 952.551 239.56C952.002 239.069 951.727 238.416 951.727 237.6C951.727 236.725 952.055 236.043 952.711 235.552C953.367 235.056 954.226 234.808 955.287 234.808C955.714 234.808 956.111 234.851 956.479 234.936C956.847 235.016 957.173 235.123 957.455 235.256V234.776C957.455 234.312 957.298 233.955 956.983 233.704C956.669 233.453 956.237 233.328 955.687 233.328C955.346 233.328 955.058 233.363 954.823 233.432C954.589 233.496 954.359 233.584 954.135 233.696C953.917 233.808 953.719 233.923 953.543 234.04C953.373 234.157 953.239 234.208 953.143 234.192C953.053 234.176 952.973 234.128 952.903 234.048L952.215 233.24C952.146 233.155 952.117 233.056 952.127 232.944C952.143 232.827 952.282 232.672 952.543 232.48C952.805 232.283 953.111 232.101 953.463 231.936C953.815 231.765 954.199 231.635 954.615 231.544C955.031 231.448 955.498 231.4 956.015 231.4C957.295 231.4 958.287 231.696 958.991 232.288C959.695 232.875 960.047 233.712 960.047 234.8V239.472C960.047 239.643 959.989 239.784 959.871 239.896C959.759 240.008 959.631 240.064 959.487 240.064H958.047C957.882 240.064 957.746 240.019 957.639 239.928C957.533 239.832 957.479 239.731 957.479 239.624V238.328L958.007 239.008H957.423C957.183 239.376 956.826 239.683 956.351 239.928C955.882 240.168 955.341 240.288 954.727 240.288ZM955.599 238.584C956.154 238.584 956.602 238.395 956.943 238.016C957.29 237.632 957.463 237.123 957.463 236.488V236.464C957.255 236.341 957.013 236.245 956.735 236.176C956.463 236.101 956.17 236.064 955.855 236.064C955.365 236.064 954.967 236.173 954.663 236.392C954.359 236.611 954.207 236.936 954.207 237.368C954.207 237.763 954.333 238.064 954.583 238.272C954.839 238.48 955.178 238.584 955.599 238.584ZM966.983 240.288C966.407 240.288 965.889 240.171 965.431 239.936C964.972 239.701 964.599 239.392 964.311 239.008H963.663L964.263 238.376V239.592C964.263 239.715 964.212 239.829 964.111 239.936C964.009 240.037 963.873 240.088 963.703 240.088H962.263C962.092 240.088 961.951 240.029 961.839 239.912C961.732 239.795 961.679 239.653 961.679 239.488V228.984C961.679 228.824 961.737 228.685 961.855 228.568C961.972 228.451 962.111 228.392 962.271 228.392H963.775C963.935 228.392 964.073 228.451 964.191 228.568C964.308 228.685 964.367 228.824 964.367 228.984V232.608H964.423C964.695 232.251 965.063 231.963 965.527 231.744C965.991 231.52 966.497 231.408 967.047 231.408C968.156 231.408 969.076 231.808 969.807 232.608C970.537 233.408 970.903 234.477 970.903 235.816C970.903 237.128 970.532 238.203 969.791 239.04C969.049 239.872 968.113 240.288 966.983 240.288ZM966.287 238.064C966.863 238.064 967.335 237.859 967.703 237.448C968.076 237.032 968.263 236.496 968.263 235.84C968.263 235.184 968.076 234.653 967.703 234.248C967.335 233.837 966.863 233.632 966.287 233.632C965.716 233.632 965.241 233.835 964.863 234.24C964.489 234.645 964.303 235.179 964.303 235.84C964.303 236.496 964.487 237.032 964.855 237.448C965.228 237.859 965.705 238.064 966.287 238.064ZM976.182 240.288C974.811 240.288 973.691 239.869 972.822 239.032C971.958 238.195 971.526 237.133 971.526 235.848C971.526 234.547 971.96 233.483 972.83 232.656C973.699 231.824 974.816 231.408 976.182 231.408C977.552 231.408 978.672 231.827 979.542 232.664C980.411 233.496 980.846 234.557 980.846 235.848C980.846 237.133 980.411 238.195 979.542 239.032C978.678 239.869 977.558 240.288 976.182 240.288ZM976.182 238.048C976.768 238.048 977.251 237.843 977.63 237.432C978.014 237.016 978.206 236.488 978.206 235.848C978.206 235.203 978.016 234.675 977.638 234.264C977.259 233.848 976.774 233.64 976.182 233.64C975.59 233.64 975.104 233.848 974.726 234.264C974.347 234.675 974.158 235.203 974.158 235.848C974.158 236.493 974.347 237.021 974.726 237.432C975.104 237.843 975.59 238.048 976.182 238.048ZM982.6 240.064C982.44 240.064 982.301 240.005 982.184 239.888C982.066 239.771 982.008 239.629 982.008 239.464V232.2C982.008 232.04 982.064 231.904 982.176 231.792C982.288 231.68 982.418 231.624 982.568 231.624H984.008C984.162 231.624 984.296 231.68 984.408 231.792C984.52 231.899 984.576 232.024 984.576 232.168V233.28L984.32 232.952H984.632C984.792 232.493 985.08 232.12 985.496 231.832C985.912 231.544 986.365 231.4 986.856 231.4C987.021 231.4 987.184 231.419 987.344 231.456C987.509 231.488 987.661 231.541 987.8 231.616C987.938 231.691 988.026 231.768 988.064 231.848C988.101 231.923 988.117 232.008 988.112 232.104L988.048 233.472C988.042 233.568 988.016 233.651 987.968 233.72C987.92 233.789 987.813 233.824 987.648 233.824C987.488 233.819 987.312 233.805 987.12 233.784C986.928 233.763 986.738 233.752 986.552 233.752C985.997 233.752 985.549 233.941 985.208 234.32C984.866 234.693 984.696 235.213 984.696 235.88V239.464C984.696 239.629 984.637 239.771 984.52 239.888C984.402 240.005 984.264 240.064 984.104 240.064H982.6ZM991.088 240.288C990.187 240.288 989.461 240.045 988.912 239.56C988.363 239.069 988.088 238.416 988.088 237.6C988.088 236.725 988.416 236.043 989.072 235.552C989.728 235.056 990.587 234.808 991.648 234.808C992.075 234.808 992.472 234.851 992.84 234.936C993.208 235.016 993.533 235.123 993.816 235.256V234.776C993.816 234.312 993.659 233.955 993.344 233.704C993.029 233.453 992.597 233.328 992.048 233.328C991.707 233.328 991.419 233.363 991.184 233.432C990.949 233.496 990.72 233.584 990.496 233.696C990.277 233.808 990.08 233.923 989.904 234.04C989.733 234.157 989.6 234.208 989.504 234.192C989.413 234.176 989.333 234.128 989.264 234.048L988.576 233.24C988.507 233.155 988.477 233.056 988.488 232.944C988.504 232.827 988.643 232.672 988.904 232.48C989.165 232.283 989.472 232.101 989.824 231.936C990.176 231.765 990.56 231.635 990.976 231.544C991.392 231.448 991.859 231.4 992.376 231.4C993.656 231.4 994.648 231.696 995.352 232.288C996.056 232.875 996.408 233.712 996.408 234.8V239.472C996.408 239.643 996.349 239.784 996.232 239.896C996.12 240.008 995.992 240.064 995.848 240.064H994.408C994.243 240.064 994.107 240.019 994 239.928C993.893 239.832 993.84 239.731 993.84 239.624V238.328L994.368 239.008H993.784C993.544 239.376 993.187 239.683 992.712 239.928C992.243 240.168 991.701 240.288 991.088 240.288ZM991.96 238.584C992.515 238.584 992.963 238.395 993.304 238.016C993.651 237.632 993.824 237.123 993.824 236.488V236.464C993.616 236.341 993.373 236.245 993.096 236.176C992.824 236.101 992.531 236.064 992.216 236.064C991.725 236.064 991.328 236.173 991.024 236.392C990.72 236.611 990.568 236.936 990.568 237.368C990.568 237.763 990.693 238.064 990.944 238.272C991.2 238.48 991.539 238.584 991.96 238.584ZM1001.32 240.288C1000.39 240.288 999.666 240.051 999.148 239.576C998.636 239.096 998.38 238.363 998.38 237.376V230.008C998.38 229.848 998.439 229.709 998.556 229.592C998.674 229.475 998.812 229.416 998.972 229.416H1000.47C1000.63 229.416 1000.77 229.475 1000.88 229.592C1001 229.709 1001.06 229.848 1001.06 230.008V237.064C1001.06 237.448 1001.14 237.733 1001.3 237.92C1001.47 238.101 1001.71 238.192 1002.04 238.192C1002.15 238.192 1002.27 238.187 1002.38 238.176C1002.5 238.165 1002.63 238.155 1002.77 238.144C1002.92 238.128 1003.02 238.149 1003.07 238.208C1003.12 238.267 1003.14 238.347 1003.15 238.448L1003.21 239.56C1003.22 239.656 1003.2 239.741 1003.16 239.816C1003.12 239.885 1003 239.957 1002.8 240.032C1002.59 240.112 1002.37 240.173 1002.14 240.216C1001.91 240.264 1001.64 240.288 1001.32 240.288ZM997.524 233.696C997.402 233.696 997.298 233.653 997.212 233.568C997.127 233.477 997.084 233.371 997.084 233.248V232.128C997.084 232.011 997.127 231.909 997.212 231.824C997.298 231.733 997.402 231.688 997.524 231.688H1002.67C1002.79 231.688 1002.89 231.733 1002.98 231.824C1003.07 231.909 1003.12 232.011 1003.12 232.128V233.248C1003.12 233.371 1003.07 233.477 1002.98 233.568C1002.89 233.653 1002.79 233.696 1002.67 233.696H997.524ZM1008.31 240.288C1006.94 240.288 1005.84 239.875 1005.02 239.048C1004.2 238.216 1003.79 237.152 1003.79 235.856C1003.79 234.587 1004.2 233.528 1005.02 232.68C1005.84 231.832 1006.92 231.408 1008.26 231.408C1009.47 231.408 1010.48 231.789 1011.28 232.552C1012.08 233.309 1012.48 234.251 1012.48 235.376V235.928C1012.48 236.067 1012.44 236.181 1012.34 236.272C1012.26 236.357 1012.13 236.4 1011.94 236.4H1005.08V235.096H1010.04C1010 234.611 1009.83 234.216 1009.51 233.912C1009.2 233.603 1008.78 233.448 1008.25 233.448C1007.68 233.448 1007.22 233.651 1006.86 234.056C1006.52 234.461 1006.34 235.032 1006.34 235.768C1006.34 236.563 1006.55 237.184 1006.95 237.632C1007.36 238.08 1007.91 238.304 1008.6 238.304C1008.89 238.304 1009.14 238.269 1009.35 238.2C1009.57 238.131 1009.77 238.04 1009.94 237.928C1010.12 237.816 1010.32 237.648 1010.53 237.424C1010.62 237.349 1010.72 237.309 1010.83 237.304C1010.94 237.299 1011.05 237.333 1011.14 237.408L1011.98 238.112C1012.08 238.187 1012.12 238.283 1012.13 238.4C1012.14 238.517 1012.1 238.624 1012.02 238.72C1011.71 239.093 1011.38 239.389 1011.03 239.608C1010.69 239.827 1010.31 239.995 1009.89 240.112C1009.47 240.229 1008.94 240.288 1008.31 240.288ZM1016.78 233.696C1016.65 233.696 1016.55 233.653 1016.46 233.568C1016.38 233.477 1016.34 233.371 1016.34 233.248V232.128C1016.34 232.011 1016.38 231.909 1016.46 231.824C1016.55 231.733 1016.65 231.688 1016.78 231.688H1021.7C1021.83 231.688 1021.93 231.733 1022.02 231.824C1022.11 231.909 1022.15 232.011 1022.15 232.128V233.248C1022.15 233.371 1022.11 233.477 1022.02 233.568C1021.93 233.653 1021.83 233.696 1021.7 233.696H1016.78ZM1018.25 240.064C1018.08 240.064 1017.94 240.005 1017.82 239.888C1017.71 239.771 1017.66 239.629 1017.66 239.464V231.088C1017.66 230.187 1017.93 229.477 1018.48 228.96C1019.03 228.437 1019.79 228.176 1020.75 228.176C1020.97 228.176 1021.2 228.192 1021.42 228.224C1021.65 228.256 1021.86 228.309 1022.06 228.384C1022.25 228.453 1022.38 228.523 1022.42 228.592C1022.47 228.661 1022.49 228.744 1022.49 228.84L1022.41 229.952C1022.4 230.048 1022.37 230.123 1022.34 230.176C1022.3 230.229 1022.23 230.261 1022.11 230.272C1022 230.283 1021.88 230.283 1021.74 230.272C1021.6 230.261 1021.46 230.259 1021.3 230.264C1021.01 230.275 1020.78 230.357 1020.6 230.512C1020.42 230.661 1020.34 230.885 1020.34 231.184V232.44V232.8V239.464C1020.34 239.629 1020.28 239.771 1020.16 239.888C1020.05 240.005 1019.91 240.064 1019.75 240.064H1018.25ZM1026.96 240.288C1025.59 240.288 1024.47 239.869 1023.6 239.032C1022.73 238.195 1022.3 237.133 1022.3 235.848C1022.3 234.547 1022.74 233.483 1023.61 232.656C1024.47 231.824 1025.59 231.408 1026.96 231.408C1028.33 231.408 1029.45 231.827 1030.32 232.664C1031.19 233.496 1031.62 234.557 1031.62 235.848C1031.62 237.133 1031.19 238.195 1030.32 239.032C1029.45 239.869 1028.33 240.288 1026.96 240.288ZM1026.96 238.048C1027.54 238.048 1028.03 237.843 1028.41 237.432C1028.79 237.016 1028.98 236.488 1028.98 235.848C1028.98 235.203 1028.79 234.675 1028.41 234.264C1028.03 233.848 1027.55 233.64 1026.96 233.64C1026.37 233.64 1025.88 233.848 1025.5 234.264C1025.12 234.675 1024.93 235.203 1024.93 235.848C1024.93 236.493 1025.12 237.021 1025.5 237.432C1025.88 237.843 1026.37 238.048 1026.96 238.048ZM1033.38 240.064C1033.22 240.064 1033.08 240.005 1032.96 239.888C1032.84 239.771 1032.78 239.629 1032.78 239.464V232.2C1032.78 232.04 1032.84 231.904 1032.95 231.792C1033.06 231.68 1033.19 231.624 1033.34 231.624H1034.78C1034.94 231.624 1035.07 231.68 1035.18 231.792C1035.3 231.899 1035.35 232.024 1035.35 232.168V233.28L1035.1 232.952H1035.41C1035.57 232.493 1035.86 232.12 1036.27 231.832C1036.69 231.544 1037.14 231.4 1037.63 231.4C1037.8 231.4 1037.96 231.419 1038.12 231.456C1038.28 231.488 1038.44 231.541 1038.58 231.616C1038.71 231.691 1038.8 231.768 1038.84 231.848C1038.88 231.923 1038.89 232.008 1038.89 232.104L1038.82 233.472C1038.82 233.568 1038.79 233.651 1038.74 233.72C1038.7 233.789 1038.59 233.824 1038.42 233.824C1038.26 233.819 1038.09 233.805 1037.9 233.784C1037.7 233.763 1037.51 233.752 1037.33 233.752C1036.77 233.752 1036.32 233.941 1035.98 234.32C1035.64 234.693 1035.47 235.213 1035.47 235.88V239.464C1035.47 239.629 1035.41 239.771 1035.3 239.888C1035.18 240.005 1035.04 240.064 1034.88 240.064H1033.38ZM884.568 252.696C884.445 252.696 884.341 252.653 884.256 252.568C884.17 252.477 884.128 252.371 884.128 252.248V251.128C884.128 251.011 884.17 250.909 884.256 250.824C884.341 250.733 884.445 250.688 884.568 250.688H889.496C889.618 250.688 889.722 250.733 889.808 250.824C889.898 250.909 889.944 251.011 889.944 251.128V252.248C889.944 252.371 889.898 252.477 889.808 252.568C889.722 252.653 889.618 252.696 889.496 252.696H884.568ZM886.04 259.064C885.874 259.064 885.733 259.005 885.616 258.888C885.504 258.771 885.448 258.629 885.448 258.464V250.088C885.448 249.187 885.722 248.477 886.272 247.96C886.821 247.437 887.578 247.176 888.544 247.176C888.762 247.176 888.986 247.192 889.216 247.224C889.445 247.256 889.656 247.309 889.848 247.384C890.045 247.453 890.168 247.523 890.216 247.592C890.264 247.661 890.285 247.744 890.28 247.84L890.2 248.952C890.189 249.048 890.165 249.123 890.128 249.176C890.096 249.229 890.021 249.261 889.904 249.272C889.792 249.283 889.666 249.283 889.528 249.272C889.394 249.261 889.25 249.259 889.096 249.264C888.802 249.275 888.568 249.357 888.392 249.512C888.216 249.661 888.128 249.885 888.128 250.184V251.44V251.8V258.464C888.128 258.629 888.069 258.771 887.952 258.888C887.84 259.005 887.704 259.064 887.544 259.064H886.04ZM891.533 259.064C891.373 259.064 891.235 259.005 891.117 258.888C891 258.771 890.941 258.629 890.941 258.464V251.2C890.941 251.04 890.997 250.904 891.109 250.792C891.221 250.68 891.352 250.624 891.501 250.624H892.941C893.096 250.624 893.229 250.68 893.341 250.792C893.453 250.899 893.509 251.024 893.509 251.168V252.28L893.253 251.952H893.565C893.725 251.493 894.013 251.12 894.429 250.832C894.845 250.544 895.299 250.4 895.789 250.4C895.955 250.4 896.117 250.419 896.277 250.456C896.443 250.488 896.595 250.541 896.733 250.616C896.872 250.691 896.96 250.768 896.997 250.848C897.035 250.923 897.051 251.008 897.045 251.104L896.981 252.472C896.976 252.568 896.949 252.651 896.901 252.72C896.853 252.789 896.747 252.824 896.581 252.824C896.421 252.819 896.245 252.805 896.053 252.784C895.861 252.763 895.672 252.752 895.485 252.752C894.931 252.752 894.483 252.941 894.141 253.32C893.8 253.693 893.629 254.213 893.629 254.88V258.464C893.629 258.629 893.571 258.771 893.453 258.888C893.336 259.005 893.197 259.064 893.037 259.064H891.533ZM901.574 259.288C900.198 259.288 899.099 258.875 898.278 258.048C897.462 257.216 897.054 256.152 897.054 254.856C897.054 253.587 897.462 252.528 898.278 251.68C899.099 250.832 900.179 250.408 901.518 250.408C902.734 250.408 903.742 250.789 904.542 251.552C905.342 252.309 905.742 253.251 905.742 254.376V254.928C905.742 255.067 905.696 255.181 905.606 255.272C905.52 255.357 905.387 255.4 905.206 255.4H898.342V254.096H903.302C903.264 253.611 903.088 253.216 902.774 252.912C902.459 252.603 902.038 252.448 901.51 252.448C900.939 252.448 900.478 252.651 900.126 253.056C899.779 253.461 899.606 254.032 899.606 254.768C899.606 255.563 899.808 256.184 900.214 256.632C900.619 257.08 901.168 257.304 901.862 257.304C902.15 257.304 902.4 257.269 902.614 257.2C902.832 257.131 903.03 257.04 903.206 256.928C903.382 256.816 903.576 256.648 903.79 256.424C903.88 256.349 903.982 256.309 904.094 256.304C904.206 256.299 904.307 256.333 904.398 256.408L905.246 257.112C905.336 257.187 905.384 257.283 905.39 257.4C905.4 257.517 905.366 257.624 905.286 257.72C904.971 258.093 904.64 258.389 904.294 258.608C903.952 258.827 903.571 258.995 903.15 259.112C902.728 259.229 902.203 259.288 901.574 259.288ZM910.894 259.288C909.518 259.288 908.42 258.875 907.598 258.048C906.782 257.216 906.374 256.152 906.374 254.856C906.374 253.587 906.782 252.528 907.598 251.68C908.42 250.832 909.5 250.408 910.838 250.408C912.054 250.408 913.062 250.789 913.862 251.552C914.662 252.309 915.062 253.251 915.062 254.376V254.928C915.062 255.067 915.017 255.181 914.926 255.272C914.841 255.357 914.708 255.4 914.526 255.4H907.662V254.096H912.622C912.585 253.611 912.409 253.216 912.094 252.912C911.78 252.603 911.358 252.448 910.83 252.448C910.26 252.448 909.798 252.651 909.446 253.056C909.1 253.461 908.926 254.032 908.926 254.768C908.926 255.563 909.129 256.184 909.534 256.632C909.94 257.08 910.489 257.304 911.182 257.304C911.47 257.304 911.721 257.269 911.934 257.2C912.153 257.131 912.35 257.04 912.526 256.928C912.702 256.816 912.897 256.648 913.11 256.424C913.201 256.349 913.302 256.309 913.414 256.304C913.526 256.299 913.628 256.333 913.718 256.408L914.566 257.112C914.657 257.187 914.705 257.283 914.71 257.4C914.721 257.517 914.686 257.624 914.606 257.72C914.292 258.093 913.961 258.389 913.614 258.608C913.273 258.827 912.892 258.995 912.47 259.112C912.049 259.229 911.524 259.288 910.894 259.288ZM923.606 259.288C922.262 259.288 921.169 258.872 920.326 258.04C919.484 257.203 919.062 256.141 919.062 254.856C919.062 253.555 919.481 252.488 920.318 251.656C921.156 250.819 922.262 250.4 923.638 250.4C924.241 250.4 924.766 250.477 925.214 250.632C925.668 250.781 926.073 251.003 926.43 251.296C926.788 251.589 927.086 251.965 927.326 252.424C927.396 252.563 927.412 252.699 927.374 252.832C927.337 252.96 927.26 253.053 927.142 253.112L925.966 253.672C925.854 253.736 925.737 253.755 925.614 253.728C925.497 253.701 925.398 253.648 925.318 253.568C925.169 253.339 925.022 253.16 924.878 253.032C924.74 252.904 924.572 252.808 924.374 252.744C924.177 252.675 923.948 252.64 923.686 252.64C923.121 252.64 922.646 252.845 922.262 253.256C921.878 253.661 921.686 254.189 921.686 254.84C921.686 255.496 921.881 256.027 922.27 256.432C922.66 256.837 923.126 257.04 923.67 257.04C923.937 257.04 924.174 257.003 924.382 256.928C924.59 256.853 924.761 256.757 924.894 256.64C925.028 256.523 925.172 256.347 925.326 256.112C925.401 256.032 925.492 255.973 925.598 255.936C925.71 255.899 925.822 255.904 925.934 255.952L927.15 256.4C927.294 256.453 927.396 256.547 927.454 256.68C927.513 256.813 927.51 256.957 927.446 257.112C927.228 257.597 926.948 257.989 926.606 258.288C926.27 258.581 925.849 258.821 925.342 259.008C924.841 259.195 924.262 259.288 923.606 259.288ZM932.727 259.288C931.356 259.288 930.236 258.869 929.367 258.032C928.503 257.195 928.071 256.133 928.071 254.848C928.071 253.547 928.505 252.483 929.375 251.656C930.244 250.824 931.361 250.408 932.727 250.408C934.097 250.408 935.217 250.827 936.087 251.664C936.956 252.496 937.391 253.557 937.391 254.848C937.391 256.133 936.956 257.195 936.087 258.032C935.223 258.869 934.103 259.288 932.727 259.288ZM932.727 257.048C933.313 257.048 933.796 256.843 934.175 256.432C934.559 256.016 934.751 255.488 934.751 254.848C934.751 254.203 934.561 253.675 934.183 253.264C933.804 252.848 933.319 252.64 932.727 252.64C932.135 252.64 931.649 252.848 931.271 253.264C930.892 253.675 930.703 254.203 930.703 254.848C930.703 255.493 930.892 256.021 931.271 256.432C931.649 256.843 932.135 257.048 932.727 257.048ZM938.553 258.464V251.2C938.553 251.04 938.609 250.904 938.721 250.792C938.833 250.68 938.966 250.624 939.121 250.624H940.553C940.707 250.624 940.841 250.677 940.953 250.784C941.065 250.891 941.121 251.013 941.121 251.152V252.224L940.865 251.888H941.177C941.465 251.424 941.865 251.061 942.377 250.8C942.889 250.539 943.422 250.408 943.977 250.408C944.889 250.408 945.611 250.685 946.145 251.24C946.683 251.789 946.953 252.523 946.953 253.44V258.464C946.953 258.629 946.894 258.771 946.777 258.888C946.659 259.005 946.521 259.064 946.361 259.064H944.857C944.697 259.064 944.558 259.005 944.441 258.888C944.323 258.771 944.265 258.629 944.265 258.464V254.112C944.265 253.616 944.142 253.237 943.897 252.976C943.657 252.709 943.302 252.576 942.833 252.576C942.369 252.576 941.987 252.741 941.689 253.072C941.39 253.403 941.241 253.816 941.241 254.312V258.464C941.241 258.629 941.182 258.771 941.065 258.888C940.947 259.005 940.809 259.064 940.649 259.064H939.145C938.985 259.064 938.846 259.005 938.729 258.888C938.611 258.771 938.553 258.629 938.553 258.464ZM951.784 259.288C951.176 259.288 950.648 259.227 950.2 259.104C949.752 258.981 949.355 258.808 949.008 258.584C948.662 258.355 948.392 258.123 948.2 257.888C948.014 257.648 947.928 257.475 947.944 257.368C947.96 257.256 948.006 257.165 948.08 257.096L948.944 256.352C949.019 256.288 949.104 256.251 949.2 256.24C949.296 256.224 949.43 256.293 949.6 256.448C949.771 256.603 949.968 256.752 950.192 256.896C950.416 257.04 950.664 257.149 950.936 257.224C951.208 257.299 951.52 257.336 951.872 257.336C952.262 257.336 952.563 257.275 952.776 257.152C952.99 257.029 953.096 256.851 953.096 256.616C953.096 256.408 952.995 256.245 952.792 256.128C952.59 256.011 952.08 255.853 951.264 255.656C950.24 255.411 949.491 255.075 949.016 254.648C948.547 254.216 948.312 253.672 948.312 253.016C948.312 252.216 948.643 251.581 949.304 251.112C949.966 250.637 950.814 250.4 951.848 250.4C952.344 250.4 952.795 250.448 953.2 250.544C953.611 250.64 953.971 250.776 954.28 250.952C954.595 251.123 954.843 251.307 955.024 251.504C955.211 251.696 955.299 251.845 955.288 251.952C955.283 252.053 955.248 252.139 955.184 252.208L954.344 252.96C954.28 253.024 954.203 253.067 954.112 253.088C954.027 253.104 953.907 253.059 953.752 252.952C953.598 252.845 953.416 252.739 953.208 252.632C953.006 252.525 952.787 252.448 952.552 252.4C952.318 252.352 952.08 252.328 951.84 252.328C951.515 252.328 951.251 252.387 951.048 252.504C950.851 252.621 950.752 252.768 950.752 252.944C950.752 253.131 950.851 253.283 951.048 253.4C951.246 253.517 951.752 253.677 952.568 253.88C953.598 254.136 954.352 254.472 954.832 254.888C955.318 255.299 955.56 255.837 955.56 256.504C955.56 257.331 955.216 258.003 954.528 258.52C953.846 259.032 952.931 259.288 951.784 259.288ZM959.647 259.288C958.676 259.288 957.919 259.016 957.375 258.472C956.831 257.928 956.559 257.165 956.559 256.184V251.224C956.559 251.059 956.617 250.917 956.735 250.8C956.852 250.683 956.991 250.624 957.151 250.624H958.655C958.815 250.624 958.953 250.683 959.071 250.8C959.188 250.917 959.247 251.059 959.247 251.224V255.704C959.247 256.232 959.367 256.629 959.607 256.896C959.852 257.157 960.193 257.288 960.631 257.288C961.089 257.288 961.473 257.117 961.783 256.776C962.092 256.435 962.247 256.008 962.247 255.496V251.224C962.247 251.059 962.305 250.917 962.423 250.8C962.54 250.683 962.679 250.624 962.839 250.624H964.343C964.503 250.624 964.641 250.683 964.759 250.8C964.876 250.917 964.935 251.059 964.935 251.224V258.472C964.935 258.643 964.876 258.784 964.759 258.896C964.647 259.008 964.521 259.064 964.383 259.064H962.967C962.801 259.064 962.665 259.016 962.559 258.92C962.457 258.819 962.407 258.712 962.407 258.6V256.68L963.623 257.904H962.343C962.113 258.304 961.764 258.635 961.295 258.896C960.825 259.157 960.276 259.288 959.647 259.288ZM967.247 259.064C967.087 259.064 966.948 259.005 966.831 258.888C966.714 258.771 966.655 258.632 966.655 258.472V247.984C966.655 247.824 966.714 247.685 966.831 247.568C966.948 247.451 967.087 247.392 967.247 247.392H968.751C968.911 247.392 969.05 247.451 969.167 247.568C969.284 247.685 969.343 247.824 969.343 247.984V258.472C969.343 258.632 969.284 258.771 969.167 258.888C969.05 259.005 968.911 259.064 968.751 259.064H967.247ZM974.557 259.288C973.624 259.288 972.899 259.051 972.381 258.576C971.869 258.096 971.613 257.363 971.613 256.376V249.008C971.613 248.848 971.672 248.709 971.789 248.592C971.907 248.475 972.045 248.416 972.205 248.416H973.701C973.861 248.416 974 248.475 974.117 248.592C974.235 248.709 974.293 248.848 974.293 249.008V256.064C974.293 256.448 974.373 256.733 974.533 256.92C974.699 257.101 974.944 257.192 975.269 257.192C975.387 257.192 975.501 257.187 975.613 257.176C975.731 257.165 975.861 257.155 976.005 257.144C976.155 257.128 976.253 257.149 976.301 257.208C976.349 257.267 976.376 257.347 976.381 257.448L976.445 258.56C976.451 258.656 976.432 258.741 976.389 258.816C976.352 258.885 976.232 258.957 976.029 259.032C975.827 259.112 975.608 259.173 975.373 259.216C975.144 259.264 974.872 259.288 974.557 259.288ZM970.757 252.696C970.635 252.696 970.531 252.653 970.445 252.568C970.36 252.477 970.317 252.371 970.317 252.248V251.128C970.317 251.011 970.36 250.909 970.445 250.824C970.531 250.733 970.635 250.688 970.757 250.688H975.901C976.024 250.688 976.128 250.733 976.213 250.824C976.304 250.909 976.349 251.011 976.349 251.128V252.248C976.349 252.371 976.304 252.477 976.213 252.568C976.128 252.653 976.024 252.696 975.901 252.696H970.757ZM980.087 259.288C979.186 259.288 978.461 259.045 977.911 258.56C977.362 258.069 977.087 257.416 977.087 256.6C977.087 255.725 977.415 255.043 978.071 254.552C978.727 254.056 979.586 253.808 980.647 253.808C981.074 253.808 981.471 253.851 981.839 253.936C982.207 254.016 982.533 254.123 982.815 254.256V253.776C982.815 253.312 982.658 252.955 982.343 252.704C982.029 252.453 981.597 252.328 981.047 252.328C980.706 252.328 980.418 252.363 980.183 252.432C979.949 252.496 979.719 252.584 979.495 252.696C979.277 252.808 979.079 252.923 978.903 253.04C978.733 253.157 978.599 253.208 978.503 253.192C978.413 253.176 978.333 253.128 978.263 253.048L977.575 252.24C977.506 252.155 977.477 252.056 977.487 251.944C977.503 251.827 977.642 251.672 977.903 251.48C978.165 251.283 978.471 251.101 978.823 250.936C979.175 250.765 979.559 250.635 979.975 250.544C980.391 250.448 980.858 250.4 981.375 250.4C982.655 250.4 983.647 250.696 984.351 251.288C985.055 251.875 985.407 252.712 985.407 253.8V258.472C985.407 258.643 985.349 258.784 985.231 258.896C985.119 259.008 984.991 259.064 984.847 259.064H983.407C983.242 259.064 983.106 259.019 982.999 258.928C982.893 258.832 982.839 258.731 982.839 258.624V257.328L983.367 258.008H982.783C982.543 258.376 982.186 258.683 981.711 258.928C981.242 259.168 980.701 259.288 980.087 259.288ZM980.959 257.584C981.514 257.584 981.962 257.395 982.303 257.016C982.65 256.632 982.823 256.123 982.823 255.488V255.464C982.615 255.341 982.373 255.245 982.095 255.176C981.823 255.101 981.53 255.064 981.215 255.064C980.725 255.064 980.327 255.173 980.023 255.392C979.719 255.611 979.567 255.936 979.567 256.368C979.567 256.763 979.693 257.064 979.943 257.272C980.199 257.48 980.538 257.584 980.959 257.584ZM990.324 259.288C989.39 259.288 988.665 259.051 988.148 258.576C987.636 258.096 987.38 257.363 987.38 256.376V249.008C987.38 248.848 987.438 248.709 987.556 248.592C987.673 248.475 987.812 248.416 987.972 248.416H989.468C989.628 248.416 989.766 248.475 989.884 248.592C990.001 248.709 990.06 248.848 990.06 249.008V256.064C990.06 256.448 990.14 256.733 990.3 256.92C990.465 257.101 990.71 257.192 991.036 257.192C991.153 257.192 991.268 257.187 991.38 257.176C991.497 257.165 991.628 257.155 991.772 257.144C991.921 257.128 992.02 257.149 992.068 257.208C992.116 257.267 992.142 257.347 992.148 257.448L992.212 258.56C992.217 258.656 992.198 258.741 992.156 258.816C992.118 258.885 991.998 258.957 991.796 259.032C991.593 259.112 991.374 259.173 991.14 259.216C990.91 259.264 990.638 259.288 990.324 259.288ZM986.524 252.696C986.401 252.696 986.297 252.653 986.212 252.568C986.126 252.477 986.084 252.371 986.084 252.248V251.128C986.084 251.011 986.126 250.909 986.212 250.824C986.297 250.733 986.401 250.688 986.524 250.688H991.668C991.79 250.688 991.894 250.733 991.98 250.824C992.07 250.909 992.116 251.011 992.116 251.128V252.248C992.116 252.371 992.07 252.477 991.98 252.568C991.894 252.653 991.79 252.696 991.668 252.696H986.524ZM994.078 259.064C993.918 259.064 993.779 259.005 993.662 258.888C993.544 258.771 993.486 258.629 993.486 258.464V251.232C993.486 251.067 993.544 250.925 993.662 250.808C993.779 250.685 993.918 250.624 994.078 250.624H995.582C995.742 250.624 995.878 250.685 995.99 250.808C996.107 250.925 996.166 251.067 996.166 251.232V258.464C996.166 258.629 996.107 258.771 995.99 258.888C995.878 259.005 995.742 259.064 995.582 259.064H994.078ZM994.838 249.44C994.416 249.44 994.059 249.296 993.766 249.008C993.478 248.72 993.334 248.368 993.334 247.952C993.334 247.531 993.478 247.181 993.766 246.904C994.059 246.627 994.416 246.488 994.838 246.488C995.264 246.488 995.619 246.627 995.902 246.904C996.184 247.181 996.326 247.533 996.326 247.96C996.326 248.371 996.184 248.72 995.902 249.008C995.619 249.296 995.264 249.44 994.838 249.44ZM1002.05 259.288C1000.68 259.288 999.559 258.869 998.69 258.032C997.826 257.195 997.394 256.133 997.394 254.848C997.394 253.547 997.828 252.483 998.698 251.656C999.567 250.824 1000.68 250.408 1002.05 250.408C1003.42 250.408 1004.54 250.827 1005.41 251.664C1006.28 252.496 1006.71 253.557 1006.71 254.848C1006.71 256.133 1006.28 257.195 1005.41 258.032C1004.55 258.869 1003.43 259.288 1002.05 259.288ZM1002.05 257.048C1002.64 257.048 1003.12 256.843 1003.5 256.432C1003.88 256.016 1004.07 255.488 1004.07 254.848C1004.07 254.203 1003.88 253.675 1003.51 253.264C1003.13 252.848 1002.64 252.64 1002.05 252.64C1001.46 252.64 1000.97 252.848 1000.59 253.264C1000.21 253.675 1000.03 254.203 1000.03 254.848C1000.03 255.493 1000.21 256.021 1000.59 256.432C1000.97 256.843 1001.46 257.048 1002.05 257.048ZM1007.88 258.464V251.2C1007.88 251.04 1007.93 250.904 1008.04 250.792C1008.16 250.68 1008.29 250.624 1008.44 250.624H1009.88C1010.03 250.624 1010.16 250.677 1010.28 250.784C1010.39 250.891 1010.44 251.013 1010.44 251.152V252.224L1010.19 251.888H1010.5C1010.79 251.424 1011.19 251.061 1011.7 250.8C1012.21 250.539 1012.74 250.408 1013.3 250.408C1014.21 250.408 1014.93 250.685 1015.47 251.24C1016.01 251.789 1016.28 252.523 1016.28 253.44V258.464C1016.28 258.629 1016.22 258.771 1016.1 258.888C1015.98 259.005 1015.84 259.064 1015.68 259.064H1014.18C1014.02 259.064 1013.88 259.005 1013.76 258.888C1013.65 258.771 1013.59 258.629 1013.59 258.464V254.112C1013.59 253.616 1013.46 253.237 1013.22 252.976C1012.98 252.709 1012.62 252.576 1012.16 252.576C1011.69 252.576 1011.31 252.741 1011.01 253.072C1010.71 253.403 1010.56 253.816 1010.56 254.312V258.464C1010.56 258.629 1010.5 258.771 1010.39 258.888C1010.27 259.005 1010.13 259.064 1009.97 259.064H1008.47C1008.31 259.064 1008.17 259.005 1008.05 258.888C1007.93 258.771 1007.88 258.629 1007.88 258.464Z" fill="white"/>
</g>
</svg>
