<svg width="164" height="26" viewBox="0 0 164 26" fill="none" xmlns="http://www.w3.org/2000/svg">
<g id="Frame 45">
<g id="Group 5">
<rect id="Rectangle 8" opacity="0.2" x="1.14706" y="3.82284" width="11.4706" height="18.3529" rx="5.73529" stroke="white" stroke-width="2.29412"/>
<path id="Vector 1" d="M6.88184 7.64648V13.7641" stroke="white" stroke-width="2.29412"/>
</g>
<path id="Scroll to continue" d="M30.8176 18.273C30.1164 18.273 29.4928 18.1686 28.9468 17.9599C28.4008 17.7511 27.9431 17.4567 27.5738 17.0766C27.2044 16.6912 26.9261 16.2871 26.7387 15.8642C26.5514 15.4413 26.4577 15.2299 26.4577 15.2299L28.3285 14.4189C28.3285 14.4189 28.3954 14.5688 28.5293 14.8685C28.6631 15.1629 28.8397 15.4306 29.0592 15.6715C29.284 15.907 29.5517 16.089 29.8621 16.2175C30.1726 16.3459 30.5232 16.4102 30.914 16.4102C31.5082 16.4102 31.9846 16.2656 32.3432 15.9766C32.7072 15.6822 32.8892 15.2994 32.8892 14.8284C32.8892 14.3948 32.6939 14.0335 32.3031 13.7444C31.9123 13.4554 31.2271 13.1583 30.2476 12.8531C29.0539 12.4784 28.1947 12.0234 27.6701 11.4881C27.1509 10.9475 26.8913 10.273 26.8913 9.46473C26.8913 8.52797 27.2553 7.75447 27.9833 7.14423C28.7166 6.534 29.6587 6.22888 30.8096 6.22888C31.4199 6.22888 31.9632 6.31453 32.4396 6.48582C32.9214 6.65176 33.3362 6.89532 33.6841 7.2165C34.0321 7.53232 34.289 7.85082 34.455 8.172C34.6263 8.48782 34.7119 8.64573 34.7119 8.64573L32.8973 9.44868C32.8973 9.44868 32.8464 9.35768 32.7447 9.17568C32.643 8.99368 32.4931 8.81168 32.2951 8.62968C32.097 8.44768 31.8695 8.31118 31.6126 8.22018C31.361 8.12382 31.0692 8.07565 30.7374 8.07565C30.2235 8.07565 29.8086 8.19341 29.4928 8.42894C29.177 8.65912 29.0191 8.96691 29.0191 9.35232C29.0191 9.70562 29.1689 10.0081 29.4687 10.2596C29.7685 10.5059 30.4751 10.803 31.5885 11.1509C32.7768 11.5096 33.644 11.986 34.19 12.5801C34.7414 13.169 35.017 13.8889 35.017 14.7401C35.017 15.7999 34.6289 16.6537 33.8528 17.3014C33.0766 17.9491 32.0649 18.273 30.8176 18.273ZM40.4964 18.273C39.2063 18.273 38.1491 17.8555 37.3247 17.0204C36.5057 16.1854 36.0962 15.1228 36.0962 13.8327C36.0962 12.5373 36.5057 11.4774 37.3247 10.6531C38.1491 9.82338 39.2143 9.40853 40.5204 9.40853C41.0611 9.40853 41.5536 9.48347 41.9979 9.63335C42.4421 9.77788 42.849 10.0054 43.2183 10.3159C43.593 10.621 43.9329 11.0679 44.2381 11.6568L42.5358 12.4918C42.3378 12.1599 42.1451 11.9084 41.9577 11.7371C41.7757 11.5658 41.5643 11.4426 41.3234 11.3677C41.0879 11.2874 40.8256 11.2473 40.5365 11.2473C39.8888 11.2473 39.3374 11.4855 38.8824 11.9619C38.4328 12.4329 38.208 13.0539 38.208 13.8247C38.208 14.6009 38.4328 15.2325 38.8824 15.7196C39.3321 16.2014 39.8808 16.4423 40.5285 16.4423C40.8229 16.4423 41.0959 16.3968 41.3475 16.3058C41.5991 16.2148 41.8159 16.0917 41.9979 15.9364C42.1799 15.7812 42.3833 15.5189 42.6081 15.1496L44.3505 15.8883C44.0293 16.5199 43.6894 16.9936 43.3307 17.3095C42.9721 17.6199 42.5519 17.8581 42.0701 18.0241C41.5937 18.19 41.0691 18.273 40.4964 18.273ZM45.7453 18V9.68956H47.7928V11.2312L47.56 10.9743H47.849C48.0043 10.5193 48.2987 10.1446 48.7323 9.85015C49.1659 9.55573 49.6316 9.40853 50.1294 9.40853C50.29 9.40853 50.4506 9.42459 50.6112 9.45671C50.7771 9.48347 50.927 9.52362 51.0608 9.57715C51.1946 9.62532 51.2615 9.64941 51.2615 9.64941L51.1652 11.6648C51.1652 11.6648 51.0822 11.6354 50.9163 11.5765C50.7557 11.5122 50.5817 11.4614 50.3944 11.4239C50.2124 11.3864 50.0437 11.3677 49.8885 11.3677C49.3157 11.3677 48.8393 11.5791 48.4593 12.002C48.0792 12.4196 47.8892 12.9736 47.8892 13.6641V18H45.7453ZM56.2285 18.273C54.9063 18.273 53.8223 17.8555 52.9766 17.0204C52.1362 16.18 51.7159 15.1228 51.7159 13.8488C51.7159 12.5534 52.1388 11.4908 52.9846 10.6611C53.8304 9.83141 54.9117 9.41656 56.2285 9.41656C57.54 9.41656 58.6186 9.83409 59.4643 10.6691C60.3155 11.5042 60.741 12.5641 60.741 13.8488C60.741 15.1228 60.3208 16.18 59.4804 17.0204C58.64 17.8555 57.556 18.273 56.2285 18.273ZM56.2285 16.4423C56.9137 16.4423 57.4837 16.2014 57.9387 15.7196C58.3937 15.2325 58.6212 14.6089 58.6212 13.8488C58.6212 13.078 58.3937 12.4517 57.9387 11.9699C57.4837 11.4881 56.9137 11.2473 56.2285 11.2473C55.538 11.2473 54.9652 11.4881 54.5102 11.9699C54.0605 12.4517 53.8357 13.0753 53.8357 13.8408C53.8357 14.6062 54.0605 15.2325 54.5102 15.7196C54.9598 16.2014 55.5326 16.4423 56.2285 16.4423ZM62.3217 18V6.41356H64.4655V18H62.3217ZM66.5716 18V6.41356H68.7155V18H66.5716ZM77.8541 18.273C77.0351 18.273 76.3874 18.0482 75.911 17.5985C75.4399 17.1489 75.2044 16.4905 75.2044 15.6233V7.44132H77.3482V15.3182C77.3482 15.725 77.4312 16.0274 77.5971 16.2255C77.7684 16.4182 78.0254 16.5172 78.368 16.5226C78.475 16.5226 78.5847 16.5119 78.6972 16.4905C78.8149 16.4637 78.9568 16.4209 79.1227 16.362C79.294 16.2978 79.3797 16.2656 79.3797 16.2656L79.4921 17.9518C79.4921 17.9518 79.393 17.9839 79.195 18.0482C78.9969 18.1178 78.7935 18.1713 78.5847 18.2088C78.376 18.2516 78.1324 18.273 77.8541 18.273ZM73.8715 11.3838V9.68956H79.3877V11.3838H73.8715ZM85.0528 18.273C83.7306 18.273 82.6467 17.8555 81.8009 17.0204C80.9605 16.18 80.5403 15.1228 80.5403 13.8488C80.5403 12.5534 80.9632 11.4908 81.8089 10.6611C82.6547 9.83141 83.736 9.41656 85.0528 9.41656C86.3643 9.41656 87.4429 9.83409 88.2887 10.6691C89.1398 11.5042 89.5653 12.5641 89.5653 13.8488C89.5653 15.1228 89.1451 16.18 88.3047 17.0204C87.4643 17.8555 86.3803 18.273 85.0528 18.273ZM85.0528 16.4423C85.738 16.4423 86.3081 16.2014 86.7631 15.7196C87.2181 15.2325 87.4456 14.6089 87.4456 13.8488C87.4456 13.078 87.2181 12.4517 86.7631 11.9699C86.3081 11.4881 85.738 11.2473 85.0528 11.2473C84.3623 11.2473 83.7895 11.4881 83.3345 11.9699C82.8849 12.4517 82.6601 13.0753 82.6601 13.8408C82.6601 14.6062 82.8849 15.2325 83.3345 15.7196C83.7842 16.2014 84.3569 16.4423 85.0528 16.4423ZM98.7566 18.273C97.4666 18.273 96.4094 17.8555 95.585 17.0204C94.766 16.1854 94.3565 15.1228 94.3565 13.8327C94.3565 12.5373 94.766 11.4774 95.585 10.6531C96.4094 9.82338 97.4746 9.40853 98.7807 9.40853C99.3214 9.40853 99.8138 9.48347 100.258 9.63335C100.702 9.77788 101.109 10.0054 101.479 10.3159C101.853 10.621 102.193 11.0679 102.498 11.6568L100.796 12.4918C100.598 12.1599 100.405 11.9084 100.218 11.7371C100.036 11.5658 99.8245 11.4426 99.5837 11.3677C99.3481 11.2874 99.0858 11.2473 98.7968 11.2473C98.1491 11.2473 97.5977 11.4855 97.1427 11.9619C96.6931 12.4329 96.4683 13.0539 96.4683 13.8247C96.4683 14.6009 96.6931 15.2325 97.1427 15.7196C97.5924 16.2014 98.141 16.4423 98.7888 16.4423C99.0832 16.4423 99.3562 16.3968 99.6078 16.3058C99.8593 16.2148 100.076 16.0917 100.258 15.9364C100.44 15.7812 100.644 15.5189 100.868 15.1496L102.611 15.8883C102.29 16.5199 101.95 16.9936 101.591 17.3095C101.232 17.6199 100.812 17.8581 100.33 18.0241C99.854 18.19 99.3294 18.273 98.7566 18.273ZM107.996 18.273C106.674 18.273 105.59 17.8555 104.744 17.0204C103.904 16.18 103.484 15.1228 103.484 13.8488C103.484 12.5534 103.907 11.4908 104.752 10.6611C105.598 9.83141 106.679 9.41656 107.996 9.41656C109.308 9.41656 110.386 9.83409 111.232 10.6691C112.083 11.5042 112.509 12.5641 112.509 13.8488C112.509 15.1228 112.089 16.18 111.248 17.0204C110.408 17.8555 109.324 18.273 107.996 18.273ZM107.996 16.4423C108.681 16.4423 109.252 16.2014 109.707 15.7196C110.162 15.2325 110.389 14.6089 110.389 13.8488C110.389 13.078 110.162 12.4517 109.707 11.9699C109.252 11.4881 108.681 11.2473 107.996 11.2473C107.306 11.2473 106.733 11.4881 106.278 11.9699C105.828 12.4517 105.603 13.0753 105.603 13.8408C105.603 14.6062 105.828 15.2325 106.278 15.7196C106.728 16.2014 107.3 16.4423 107.996 16.4423ZM114.089 18V9.68956H116.137V11.1911L115.904 10.894H116.193C116.461 10.4443 116.849 10.0857 117.357 9.81803C117.866 9.55038 118.404 9.41656 118.971 9.41656C119.913 9.41656 120.652 9.69491 121.187 10.2516C121.723 10.803 121.99 11.5551 121.99 12.5079V18H119.838V12.9977C119.838 12.4089 119.697 11.9619 119.413 11.6568C119.135 11.3516 118.714 11.1991 118.152 11.1991C117.601 11.1991 117.143 11.4025 116.779 11.8093C116.415 12.2108 116.233 12.7059 116.233 13.2948V18H114.089ZM127.301 18.273C126.482 18.273 125.834 18.0482 125.358 17.5985C124.887 17.1489 124.651 16.4905 124.651 15.6233V7.44132H126.795V15.3182C126.795 15.725 126.878 16.0274 127.044 16.2255C127.215 16.4182 127.472 16.5172 127.815 16.5226C127.922 16.5226 128.032 16.5119 128.144 16.4905C128.262 16.4637 128.404 16.4209 128.569 16.362C128.741 16.2978 128.826 16.2656 128.826 16.2656L128.939 17.9518C128.939 17.9518 128.84 17.9839 128.642 18.0482C128.444 18.1178 128.24 18.1713 128.032 18.2088C127.823 18.2516 127.579 18.273 127.301 18.273ZM123.318 11.3838V9.68956H128.834V11.3838H123.318ZM130.62 18V9.68956H132.772V18H130.62ZM131.704 8.24426C131.351 8.24426 131.051 8.12115 130.805 7.87491C130.559 7.62868 130.436 7.33159 130.436 6.98365C130.436 6.625 130.559 6.32791 130.805 6.09238C131.051 5.85685 131.351 5.73909 131.704 5.73909C132.068 5.73909 132.368 5.85685 132.603 6.09238C132.839 6.32791 132.957 6.625 132.957 6.98365C132.957 7.33159 132.836 7.62868 132.595 7.87491C132.36 8.12115 132.063 8.24426 131.704 8.24426ZM134.947 18V9.68956H136.995V11.1911L136.762 10.894H137.051C137.318 10.4443 137.707 10.0857 138.215 9.81803C138.724 9.55038 139.262 9.41656 139.829 9.41656C140.771 9.41656 141.51 9.69491 142.045 10.2516C142.58 10.803 142.848 11.5551 142.848 12.5079V18H140.696V12.9977C140.696 12.4089 140.554 11.9619 140.271 11.6568C139.992 11.3516 139.572 11.1991 139.01 11.1991C138.459 11.1991 138.001 11.4025 137.637 11.8093C137.273 12.2108 137.091 12.7059 137.091 13.2948V18H134.947ZM147.845 18.273C146.871 18.273 146.114 17.9973 145.573 17.446C145.038 16.8893 144.77 16.1051 144.77 15.0934V9.68956H146.914V14.724C146.914 15.3396 147.056 15.8053 147.339 16.1211C147.623 16.4316 148.03 16.5868 148.56 16.5868C149.106 16.5868 149.564 16.3834 149.933 15.9766C150.308 15.5644 150.495 15.0612 150.495 14.4671V9.68956H152.639V18H150.607V15.8883L151.587 16.8598H150.559C150.318 17.272 149.957 17.6119 149.475 17.8796C148.994 18.1419 148.45 18.273 147.845 18.273ZM158.576 18.273C157.276 18.273 156.224 17.8608 155.421 17.0365C154.618 16.2068 154.216 15.1415 154.216 13.8408C154.216 12.5775 154.613 11.5256 155.405 10.6852C156.202 9.83944 157.241 9.41656 158.52 9.41656C159.73 9.41656 160.718 9.78859 161.483 10.5326C162.249 11.2767 162.631 12.2215 162.631 13.367V14.2904H155.308V13.0539H160.608V13.0459C160.57 12.4945 160.367 12.0395 159.998 11.6809C159.628 11.3169 159.136 11.1349 158.52 11.1349C157.856 11.1349 157.318 11.3704 156.906 11.8414C156.499 12.3125 156.296 12.9629 156.296 13.7926C156.296 14.6651 156.526 15.3503 156.987 15.8481C157.452 16.3459 158.049 16.5949 158.777 16.5949C159.109 16.5949 159.401 16.552 159.652 16.4664C159.904 16.3754 160.131 16.2549 160.335 16.1051C160.544 15.9498 160.782 15.7036 161.049 15.3664L162.398 16.362C162.04 16.8759 161.681 17.2586 161.322 17.5102C160.969 17.7618 160.578 17.9518 160.15 18.0803C159.722 18.2088 159.197 18.273 158.576 18.273Z" fill="white"/>
</g>
</svg>
